<?xml version="1.0" encoding="UTF-8" standalone="no"?>
<!-- Created with Inkscape (http://www.inkscape.org/) -->

<svg
   xmlns:dc="http://purl.org/dc/elements/1.1/"
   xmlns:cc="http://creativecommons.org/ns#"
   xmlns:rdf="http://www.w3.org/1999/02/22-rdf-syntax-ns#"
   xmlns:svg="http://www.w3.org/2000/svg"
   xmlns="http://www.w3.org/2000/svg"
   xmlns:sodipodi="http://sodipodi.sourceforge.net/DTD/sodipodi-0.dtd"
   xmlns:inkscape="http://www.inkscape.org/namespaces/inkscape"
   width="933.21875"
   height="1171.625"
   id="svg2"
   version="1.1"
   inkscape:version="0.48.4 r9939"
   sodipodi:docname="inkcut_splash.svg">
  <defs
     id="defs4">
    <filter
       inkscape:collect="always"
       id="filter3868"
       color-interpolation-filters="sRGB">
      <feGaussianBlur
         inkscape:collect="always"
         stdDeviation="2.6457651"
         id="feGaussianBlur3870" />
    </filter>
  </defs>
  <sodipodi:namedview
     id="base"
     pagecolor="#ffffff"
     bordercolor="#666666"
     borderopacity="1.0"
     inkscape:pageopacity="1"
     inkscape:pageshadow="2"
     inkscape:zoom="0.98994949"
     inkscape:cx="217.05352"
     inkscape:cy="815.08352"
     inkscape:document-units="px"
     inkscape:current-layer="layer1"
     showgrid="false"
     inkscape:window-width="1920"
     inkscape:window-height="1053"
     inkscape:window-x="1366"
     inkscape:window-y="0"
     inkscape:window-maximized="1"
     fit-margin-top="0"
     fit-margin-left="0"
     fit-margin-right="0"
     fit-margin-bottom="0" />
  <metadata
     id="metadata7">
    <rdf:RDF>
      <cc:Work
         rdf:about="">
        <dc:format>image/svg+xml</dc:format>
        <dc:type
           rdf:resource="http://purl.org/dc/dcmitype/StillImage" />
        <dc:title></dc:title>
      </cc:Work>
    </rdf:RDF>
  </metadata>
  <g
     inkscape:label="Layer 1"
     inkscape:groupmode="layer"
     id="layer1"
     transform="translate(0,119.25)">
    <rect
       style="fill:#ffffff;fill-opacity:1;stroke:#ffffff;stroke-width:16;stroke-linecap:round;stroke-linejoin:round;stroke-miterlimit:4;stroke-opacity:1;stroke-dasharray:none"
       id="rect3877"
       width="917.21851"
       height="1155.6145"
       x="8"
       y="-111.25232"
       rx="0"
       ry="0" />
    <g
       id="g3872"
       transform="matrix(0.54543136,0,0,0.36865467,39.300978,208.70812)"
       style="opacity:0.2">
      <path
         inkscape:connector-curvature="0"
         id="path2992"
         d="m 348.37766,19.183866 -46.23574,7.17946 -66.62541,277.988784 44.22549,0 22.11274,-89.88687 c 5.3912,5.39138 10.69059,11.55997 16.082,18.6666 5.39119,6.86172 10.60634,14.31304 15.50763,22.39993 4.90106,7.84193 9.33127,15.79102 13.49739,24.12299 4.16587,8.33203 8.05617,16.61041 11.48714,24.69735 l 49.10753,0 c -2.9409,-8.332 -6.54403,-17.15028 -11.19997,-26.7076 -4.65629,-9.55726 -9.87145,-19.11839 -15.50763,-28.43067 -5.63652,-9.31218 -11.39157,-18.13047 -17.51789,-26.7076 -6.12662,-8.57697 -12.25309,-16.02829 -18.37943,-22.39993 8.33187,-6.61648 16.73662,-13.61214 25.55889,-20.96403 8.82196,-7.35163 17.51388,-14.80295 25.84606,-22.39992 8.33182,-7.59667 16.2388,-15.37728 23.83582,-22.97428 7.59661,-7.59665 14.22086,-14.67655 20.10249,-21.53839 l -51.11777,0 c -4.41123,4.90137 -9.6685,10.24289 -15.79481,16.36918 -6.12663,5.88159 -12.70876,12.33735 -19.81532,18.95378 -6.86178,6.37169 -14.27098,12.62451 -22.11274,19.24096 -7.842,6.37167 -15.37756,12.49814 -22.97428,18.37942 L 348.37766,19.183866 z M 65.794016,49.624783 4.6249965,304.35211 l 46.5229195,0 60.881844,-254.727327 -46.235744,0 z M 789.771,53.93246 743.53527,61.399101 706.20206,219.34727 c -1.71545,7.10679 -3.32747,14.01822 -4.30767,20.38968 -0.73518,6.12653 -0.86158,12.21088 -0.86154,18.09224 -4e-5,15.92887 4.43017,28.30817 13.49739,37.62039 9.06713,9.06718 24.01188,13.78456 45.08702,13.78456 11.51767,0 21.57656,-1.24061 30.15374,-3.44614 8.57694,-2.20553 15.9019,-4.44169 21.53839,-6.89228 l -3.44614,-35.61013 c -4.65625,1.96051 -9.95566,3.74102 -16.082,5.45639 -6.12659,1.71544 -12.62447,2.58464 -19.24096,2.5846 -6.12656,4e-5 -10.97031,-0.49774 -14.6461,-1.72307 -3.43091,-1.47031 -6.08061,-3.2087 -8.041,-5.16921 -1.71549,-2.20548 -2.99823,-4.77095 -3.73332,-7.46664 -0.49018,-2.94065 -0.57444,-5.96177 -0.57435,-8.90253 -10e-5,-2.94065 0.0842,-6.04601 0.57435,-9.4769 0.49004,-3.67581 1.35924,-8.10601 2.58461,-13.49739 l 18.37942,-76.1023 62.89209,0 8.90254,-36.75885 -62.89209,0 13.78456,-58.29723 z m -273.6811,53.4152 c -18.13449,2e-4 -34.31986,3.43485 -48.53317,10.05125 -14.21351,6.61677 -26.09502,15.47717 -35.89731,26.99478 -9.80241,11.27286 -17.58303,24.72429 -22.97428,39.91781 -5.14628,14.9487 -7.75385,30.72053 -7.75382,47.38445 -3e-5,11.02772 1.65411,21.17086 4.59486,30.7281 3.18572,9.31228 7.98734,17.59066 14.35892,24.69735 6.61654,6.86166 14.60775,12.49035 24.41017,16.65635 9.80227,3.92094 21.55744,5.74357 35.03578,5.74357 11.76271,0 22.27726,-1.32485 31.58964,-4.0205 9.31209,-2.45058 16.7634,-5.05816 22.39992,-7.75381 l -3.73332,-36.47167 c -4.16616,2.20557 -9.96333,4.39961 -17.80507,6.6051 -7.59696,2.20557 -15.79111,3.44618 -24.12299,3.44614 -8.08706,4e-5 -14.7113,-1.24057 -20.1025,-3.44614 -5.39139,-2.20549 -9.73735,-5.26873 -12.92303,-9.18971 -2.94079,-4.16595 -5.13484,-8.63827 -6.60511,-13.78457 -1.22535,-5.39123 -1.72314,-11.43346 -1.72307,-17.80507 -7e-5,-11.27262 1.40902,-21.82929 4.59486,-31.87681 3.18568,-10.0473 7.90306,-18.78135 13.78457,-26.13324 5.88131,-7.35163 12.9191,-13.06456 21.25121,-17.23071 8.57694,-4.41091 18.18018,-6.60495 28.71785,-6.60511 7.84173,1.6e-4 14.42386,0.82723 19.81531,2.29743 5.39113,1.47051 10.23487,2.92172 14.64611,4.88203 l 8.32817,-18.95378 -18.95378,79.83562 c -2.94074,12.4981 -4.59489,23.96607 -4.59485,34.74861 -4e-5,8.33205 1.19845,16.23903 3.15896,23.83581 2.20549,7.3518 5.39509,13.8918 10.05125,19.52814 4.90113,5.39131 11.35689,9.73727 18.95378,12.92303 7.59676,3.18576 16.78646,4.88203 27.56913,4.88203 12.00779,0 22.52234,-2.19404 31.58964,-6.6051 9.06705,-4.65611 16.56048,-9.45773 22.6871,-14.35893 0.98008,3.43085 1.8914,6.90762 2.87178,10.33843 1.22515,3.18577 2.54999,5.91971 4.0205,8.61536 l 39.91781,-5.74357 c -2.69584,-6.61659 -4.80564,-13.528 -6.03075,-20.38968 -0.98045,-6.86162 -1.43607,-13.5701 -1.43589,-20.67685 -1.8e-4,-5.63631 0.37127,-11.30711 0.86154,-16.94353 0.73498,-5.63629 1.6463,-11.30711 2.87178,-16.94353 l 27.28196,-114.29705 -44.51267,0 -25.84606,108.84065 c -2.69579,11.02773 -4.43422,21.62652 -5.16921,32.164 -5.39144,5.6364 -11.14649,10.35378 -17.51789,13.78457 -6.37165,3.1858 -13.73873,4.59489 -21.82557,4.59485 -4.90128,4e-5 -8.91794,-0.53986 -12.34867,-2.01025 -3.18586,-1.47031 -5.79344,-3.58012 -7.75382,-6.03075 -1.7155,-2.6956 -2.99824,-5.75883 -3.73332,-9.18971 -0.73527,-3.43076 -1.1488,-6.99178 -1.14872,-10.91278 -8e-5,-8.08688 1.69619,-18.55932 4.88204,-31.30246 l 23.83581,-99.93812 -44.51266,0 -0.86154,3.44615 c -6.20101,-2.5132 -12.61001,-4.48554 -19.52814,-5.74357 -7.84205,-1.71517 -16.5761,-2.58441 -26.13324,-2.58461 z m -339.73216,0.86154 c -10.79795,0.5055 -20.8837,1.99891 -30.44092,4.02049 -12.4981,2.45078 -23.7976,5.10049 -33.59988,8.041 l -43.938314,184.08142 44.512674,0 37.04602,-155.36357 c 7.59671,-2.20537 16.7443,-3.44598 27.28196,-3.44614 12.49786,1.6e-4 20.81837,2.97916 24.98453,8.61535 4.41089,5.63651 6.27565,12.67429 6.03075,21.25121 -0.24522,5.14637 -0.78512,10.44577 -2.01025,16.082 -1.22546,5.63646 -2.50819,11.26516 -3.73332,16.65635 l -22.97428,96.2048 44.51266,0 24.41017,-101.08683 c 1.22509,-6.12637 2.13643,-11.88142 2.87179,-17.51789 0.97999,-5.88129 1.43568,-11.50999 1.43589,-16.65635 -2.1e-4,-18.62433 -5.25748,-33.48484 -15.79482,-44.51267 -10.53771,-11.02746 -27.13662,-16.36897 -49.68187,-16.36917 -3.73718,5e-5 -7.31347,-0.16851 -10.91279,0 z"
         style="font-size:40px;font-style:italic;font-variant:normal;font-weight:500;font-stretch:normal;text-align:start;line-height:125%;letter-spacing:-4.28999996px;word-spacing:0px;writing-mode:lr-tb;text-anchor:start;fill:#b3b3b3;fill-opacity:1;stroke:none;font-family:Ubuntu;-inkscape-font-specification:Ubuntu Medium Italic" />
      <path
         sodipodi:nodetypes="ssssssssscccccccssscccccccccccccccccccccccccccccccsccsscscccccccccccccccccccccccccccccssccsccccccssccccsccccscccscccccccccccccccccccccccc"
         style="fill:#1a1a1a;fill-opacity:1;stroke:none;filter:url(#filter3868)"
         d="m 27.129464,2.3482143 c -4.748084,0.067949 -8.013547,3.8770162 -8.5625,8.5937497 L -20.004464,342.35714 c -0.548953,4.71674 3.814253,8.61799 8.5625,8.5625 l 855.741074,-10 c 4.74825,-0.0555 8.82704,-3.8213 8.5625,-8.5625 L 834.29018,-0.48660713 C 834.02564,-5.2278037 830.47576,-9.148306 825.72768,-9.0803571 z M 348.375,19.1875 l -39.90625,166 c 7.59672,-5.88128 15.12675,-12.03458 22.96875,-18.40625 7.84176,-6.61645 15.23197,-12.84706 22.09375,-19.21875 7.10656,-6.61643 13.71712,-13.08716 19.84375,-18.96875 6.12631,-6.12629 11.37002,-11.47363 15.78125,-16.375 l 51.125,0 c -5.88163,6.86184 -12.49714,13.96585 -20.09375,21.5625 -7.59702,7.597 -15.51193,15.37208 -23.84375,22.96875 -8.33218,7.59697 -17.02179,15.05462 -25.84375,22.40625 -8.82227,7.35189 -17.23063,14.32102 -25.5625,20.9375 6.12634,6.37164 12.24838,13.82928 18.375,22.40625 6.12632,8.57713 11.89473,17.40657 17.53125,26.71875 5.63618,9.31228 10.84371,18.88024 15.5,28.4375 4.65594,9.55732 8.2466,18.3555 11.1875,26.6875 l -49.09375,0 c -3.43097,-8.08694 -7.33413,-16.35547 -11.5,-24.6875 -4.16612,-8.33197 -8.59894,-16.28307 -13.5,-24.125 -4.90129,-8.08689 -10.10881,-15.54453 -15.5,-22.40625 -5.39141,-7.10663 -10.70255,-13.26487 -16.09375,-18.65625 l -22.09375,89.875 -44.21875,0 66.625,-277.96875 z M 65.78125,49.625 l 46.25,0 -60.875,254.71875 -46.53125,0 z m 724,4.3125 L 776,112.21875 l 62.875,0 -8.90625,36.78125 -62.875,0 -18.375,76.09375 c -1.22537,5.39138 -2.10371,9.82419 -2.59375,13.5 -0.49015,3.43089 -0.59385,6.5281 -0.59375,9.46875 -9e-5,2.94076 0.10357,5.9656 0.59375,8.90625 0.73509,2.69569 2.00326,5.26327 3.71875,7.46875 1.96039,1.96051 4.63159,3.68594 8.0625,5.15625 3.67579,1.22533 8.49844,1.71879 14.625,1.71875 6.61649,4e-5 13.12341,-0.84706 19.25,-2.5625 6.12634,-1.71537 11.4375,-3.50824 16.09375,-5.46875 l 3.4375,35.625 c -5.63649,2.45059 -12.95431,4.66947 -21.53125,6.875 -8.57718,2.20553 -18.63858,3.4375 -30.15625,3.4375 -21.07514,0 -36.02662,-4.71407 -45.09375,-13.78125 -9.06722,-9.31222 -13.50004,-21.66488 -13.5,-37.59375 -4e-5,-5.88136 0.13982,-11.96722 0.875,-18.09375 0.9802,-6.37146 2.5658,-13.29946 4.28125,-20.40625 l 37.34375,-157.9375 z m -273.6875,53.40625 c 9.55714,2e-4 18.28295,0.87858 26.125,2.59375 6.91813,1.25803 13.33024,3.2368 19.53125,5.75 l 0.875,-3.46875 44.5,0 -23.84375,99.9375 c -3.18585,12.74314 -4.87508,23.22562 -4.875,31.3125 -8e-5,3.921 0.42098,7.47549 1.15625,10.90625 0.73508,3.43088 2.00325,6.4919 3.71875,9.1875 1.96038,2.45063 4.56414,4.56094 7.75,6.03125 3.43073,1.47039 7.47372,2.03129 12.375,2.03125 8.08684,4e-5 15.44085,-1.40795 21.8125,-4.59375 6.3714,-3.43079 12.13981,-8.1761 17.53125,-13.8125 0.73499,-10.53748 2.46046,-21.12852 5.15625,-32.15625 L 673.75,112.21875 l 44.5,0 -27.28125,114.3125 c -1.22548,5.63642 -2.10877,11.30121 -2.84375,16.9375 -0.49027,5.63642 -0.87518,11.30119 -0.875,16.9375 -1.8e-4,7.10675 0.45705,13.82588 1.4375,20.6875 1.22511,6.86168 3.33541,13.75841 6.03125,20.375 l -39.90625,5.75 c -1.47051,-2.69565 -2.8061,-5.43923 -4.03125,-8.625 -0.98038,-3.43081 -1.89492,-6.88165 -2.875,-10.3125 -6.12662,4.9012 -13.62045,9.68764 -22.6875,14.34375 -9.0673,4.41106 -19.58596,6.59375 -31.59375,6.59375 -10.78267,0 -19.96574,-1.68924 -27.5625,-4.875 -7.59689,-3.18576 -14.06762,-7.51494 -18.96875,-12.90625 -4.65616,-5.63634 -7.82576,-12.17945 -10.03125,-19.53125 -1.96051,-7.59678 -3.15629,-15.5117 -3.15625,-23.84375 -4e-5,-10.78254 1.65301,-22.2519 4.59375,-34.75 l 18.9375,-79.84375 -8.3125,18.96875 c -4.41124,-1.96031 -9.26512,-3.40449 -14.65625,-4.875 -5.39145,-1.4702 -11.97077,-2.31234 -19.8125,-2.3125 -10.53767,1.6e-4 -20.14181,2.21409 -28.71875,6.625 -8.33211,4.16615 -15.36869,9.86712 -21.25,17.21875 -5.88151,7.35189 -10.59557,16.0777 -13.78125,26.125 -3.18584,10.04752 -4.59382,20.60238 -4.59375,31.875 -7e-5,6.37161 0.4934,12.42127 1.71875,17.8125 1.47027,5.1463 3.65296,9.6153 6.59375,13.78125 3.18568,3.92098 7.54611,6.98201 12.9375,9.1875 5.3912,2.20557 12.00669,3.43754 20.09375,3.4375 8.33188,4e-5 16.52804,-1.23193 24.125,-3.4375 7.84174,-2.20549 13.64634,-4.38818 17.8125,-6.59375 L 533.3125,297.75 c -5.63652,2.69565 -13.09416,5.29942 -22.40625,7.75 -9.31238,2.69565 -19.79979,4.03125 -31.5625,4.03125 -13.47834,0 -25.26023,-1.82906 -35.0625,-5.75 -9.80242,-4.166 -17.78971,-9.79459 -24.40625,-16.65625 -6.37158,-7.10669 -11.15803,-15.37522 -14.34375,-24.6875 -2.94075,-9.55724 -4.59378,-19.72228 -4.59375,-30.75 -3e-5,-16.66392 2.60372,-32.4263 7.75,-47.375 5.39125,-15.19352 13.16634,-28.63339 22.96875,-39.90625 9.80229,-11.51761 21.69274,-20.38323 35.90625,-27 14.21331,-6.6164 30.39676,-10.0623 48.53125,-10.0625 z M 179.0625,108.125 c 2.69948,-0.0237 5.41586,0.0938 8.21875,0.0937 22.54525,2e-4 39.11854,5.34754 49.65625,16.375 10.53734,11.02783 15.81229,25.87567 15.8125,44.5 -2.1e-4,5.14636 -0.45751,10.77496 -1.4375,16.65625 -0.73536,5.63647 -1.64991,11.37363 -2.875,17.5 l -24.40625,101.09375 -44.5,0 L 202.5,208.1562 c 1.22513,-5.39119 2.49329,-11.01979 3.71875,-16.65625 1.22513,-5.63623 1.78603,-10.94738 2.03125,-16.09375 0.2449,-8.57692 -1.62036,-15.61349 -6.03125,-21.25 -4.16616,-5.63619 -12.50214,-8.62484 -25,-8.625 -10.53766,1.6e-4 -19.68454,1.26338 -27.28125,3.46875 l -37.03125,155.34375 -44.53125,0 43.9375,-184.0625 c 9.80228,-2.94051 21.09565,-5.61172 33.59375,-8.0625 9.55722,-2.02158 19.63955,-3.4945 30.4375,-4 0.89983,-0.0421 1.81892,-0.0859 2.71875,-0.0937 z"
         id="path3098"
         inkscape:connector-curvature="0" />
      <path
         inkscape:connector-curvature="0"
         id="rect3093"
         d="m -41.727676,-34.223213 c -4.748571,0 -8.5625,3.845179 -8.5625,8.59375 l 0,382.843753 c 0,4.74857 3.813929,8.5625 8.5625,8.5625 l 904.312506,0 c 4.74857,0 8.5625,-3.81393 8.5625,-8.5625 l 0,-382.843753 c 0,-4.748571 -3.81393,-8.59375 -8.5625,-8.59375 l -904.312506,0 z m 385.531256,51.125 -39.90625,166.000003 c 7.59672,-5.88128 15.12675,-12.03458 22.96875,-18.40625 7.84176,-6.61645 15.23197,-12.84706 22.09375,-19.21875 7.10656,-6.61643 13.71712,-13.08716 19.84375,-18.96875 6.12631,-6.12629 11.37002,-11.47363 15.78125,-16.375 l 51.125,0 c -5.88163,6.86184 -12.49714,13.96585 -20.09375,21.5625 -7.59702,7.597 -15.51193,15.37208 -23.84375,22.96875 -8.33218,7.59697 -17.02179,15.05462 -25.84375,22.40625 -8.82227,7.35189 -17.23063,14.32102 -25.5625,20.9375 6.12634,6.37164 12.24838,13.82928 18.375,22.40625 6.12632,8.57713 11.89473,17.40657 17.53125,26.71875 5.63618,9.31228 10.84371,18.88024 15.5,28.4375 4.65594,9.55732 8.2466,18.3555 11.1875,26.6875 l -49.09375,0 c -3.43097,-8.08694 -7.33413,-16.35547 -11.5,-24.6875 -4.16612,-8.33197 -8.59894,-16.28307 -13.5,-24.125 -4.90129,-8.08689 -10.10881,-15.54453 -15.5,-22.40625 -5.39141,-7.10663 -10.70255,-13.26487 -16.09375,-18.65625 l -22.09375,89.875 -44.21875,0 66.625,-277.968753 46.21875,-7.1875 z m -282.593756,30.4375 46.250006,0 -60.875006,254.718753 -46.53125283,0 L 61.209824,47.339287 z m 724.000006,4.3125 -13.78125,58.281253 62.875,0 -8.90625,36.78125 -62.875,0 -18.375,76.09375 c -1.22537,5.39138 -2.10371,9.82419 -2.59375,13.5 -0.49015,3.43089 -0.59385,6.5281 -0.59375,9.46875 -9e-5,2.94076 0.10357,5.9656 0.59375,8.90625 0.73509,2.69569 2.00326,5.26327 3.71875,7.46875 1.96039,1.96051 4.63159,3.68594 8.0625,5.15625 3.67579,1.22533 8.49844,1.71879 14.625,1.71875 6.61649,4e-5 13.12341,-0.84706 19.25,-2.5625 6.12634,-1.71537 11.4375,-3.50824 16.09375,-5.46875 l 3.4375,35.625 c -5.63649,2.45059 -12.95431,4.66947 -21.53125,6.875 -8.57718,2.20553 -18.63858,3.4375 -30.15625,3.4375 -21.07514,0 -36.02662,-4.71407 -45.09375,-13.78125 -9.06722,-9.31222 -13.50004,-21.66488 -13.5,-37.59375 -4e-5,-5.88136 0.13982,-11.96722 0.875,-18.09375 0.9802,-6.37146 2.5658,-13.29946 4.28125,-20.40625 l 37.34375,-157.937503 46.25,-7.46875 z m -273.6875,53.406253 c 9.55714,2e-4 18.28295,0.87858 26.125,2.59375 6.91813,1.25803 13.33024,3.2368 19.53125,5.75 l 0.875,-3.46875 44.5,0 -23.84375,99.9375 c -3.18585,12.74314 -4.87508,23.22562 -4.875,31.3125 -8e-5,3.921 0.42098,7.47549 1.15625,10.90625 0.73508,3.43088 2.00325,6.4919 3.71875,9.1875 1.96038,2.45063 4.56414,4.56094 7.75,6.03125 3.43073,1.47039 7.47372,2.03129 12.375,2.03125 8.08684,4e-5 15.44085,-1.40795 21.8125,-4.59375 6.3714,-3.43079 12.13981,-8.1761 17.53125,-13.8125 0.73499,-10.53748 2.46046,-21.12852 5.15625,-32.15625 l 25.84375,-108.84375 44.5,0 -27.28125,114.3125 c -1.22548,5.63642 -2.10877,11.30121 -2.84375,16.9375 -0.49027,5.63642 -0.87518,11.30119 -0.875,16.9375 -1.8e-4,7.10675 0.45705,13.82588 1.4375,20.6875 1.22511,6.86168 3.33541,13.75841 6.03125,20.375 l -39.90625,5.75 c -1.47051,-2.69565 -2.8061,-5.43923 -4.03125,-8.625 -0.98038,-3.43081 -1.89492,-6.88165 -2.875,-10.3125 -6.12662,4.9012 -13.62045,9.68764 -22.6875,14.34375 -9.0673,4.41106 -19.58596,6.59375 -31.59375,6.59375 -10.78267,0 -19.96574,-1.68924 -27.5625,-4.875 -7.59689,-3.18576 -14.06762,-7.51494 -18.96875,-12.90625 -4.65616,-5.63634 -7.82576,-12.17945 -10.03125,-19.53125 -1.96051,-7.59678 -3.15629,-15.5117 -3.15625,-23.84375 -4e-5,-10.78254 1.65301,-22.2519 4.59375,-34.75 l 18.9375,-79.84375 -8.3125,18.96875 c -4.41124,-1.96031 -9.26512,-3.40449 -14.65625,-4.875 -5.39145,-1.4702 -11.97077,-2.31234 -19.8125,-2.3125 -10.53767,1.6e-4 -20.14181,2.21409 -28.71875,6.625 -8.33211,4.16615 -15.36869,9.86712 -21.25,17.21875 -5.88151,7.35189 -10.59557,16.0777 -13.78125,26.125 -3.18584,10.04752 -4.59382,20.60238 -4.59375,31.875 -7e-5,6.37161 0.4934,12.42127 1.71875,17.8125 1.47027,5.1463 3.65296,9.6153 6.59375,13.78125 3.18568,3.92098 7.54611,6.98201 12.9375,9.1875 5.3912,2.20557 12.00669,3.43754 20.09375,3.4375 8.33188,4e-5 16.52804,-1.23193 24.125,-3.4375 7.84174,-2.20549 13.64634,-4.38818 17.8125,-6.59375 l 3.71875,36.46875 c -5.63652,2.69565 -13.09416,5.29942 -22.40625,7.75 -9.31238,2.69565 -19.79979,4.03125 -31.5625,4.03125 -13.47834,0 -25.26023,-1.82906 -35.0625,-5.75 -9.80242,-4.166 -17.78971,-9.79459 -24.40625,-16.65625 -6.37158,-7.10669 -11.15803,-15.37522 -14.34375,-24.6875 -2.94075,-9.55724 -4.59378,-19.72228 -4.59375,-30.75 -3e-5,-16.66392 2.60372,-32.4263 7.75,-47.375 5.39125,-15.19352 13.16634,-28.63339 22.96875,-39.90625 9.80229,-11.51761 21.69274,-20.38323 35.90625,-27 14.21331,-6.6164 30.39676,-10.0623 48.53125,-10.0625 z m -337.03125,0.78125 c 2.69948,-0.0237 5.41586,0.0938 8.21875,0.0937 22.54525,2e-4 39.11854,5.34754 49.65625,16.375 10.53734,11.02783 15.81229,25.87567 15.8125,44.5 -2.1e-4,5.14636 -0.45751,10.77496 -1.4375,16.65625 -0.73536,5.63647 -1.64991,11.37363 -2.875,17.5 l -24.40625,101.09375 -44.5,0 22.96875,-96.1875 c 1.22513,-5.39119 2.49329,-11.01979 3.71875,-16.65625 1.22513,-5.63623 1.78603,-10.94738 2.03125,-16.09375 0.2449,-8.57692 -1.62036,-15.61349 -6.03125,-21.25 -4.16616,-5.63619 -12.50214,-8.62484 -25,-8.625 -10.53766,1.6e-4 -19.68454,1.26338 -27.28125,3.46875 l -37.03125,155.34375 -44.531256,0 43.937506,-184.0625 c 9.80228,-2.94051 21.09565,-5.61172 33.59375,-8.0625 9.55722,-2.02158 19.63955,-3.4945 30.4375,-4 0.89983,-0.0421 1.81892,-0.0859 2.71875,-0.0937 z"
         style="fill:#ffffff;fill-opacity:1;stroke:none" />
    </g>
  </g>
</svg>
